# xmcd
#
# Track frame offsets:
#	150
#	18734
#	34417
#	50781
#	68315
#	84700
#	100302
#	119723
#	135016
#	150093
#	168602
#	183211
#
# Disc length: 2769 seconds
#
# Revision: 1
# Processed by: cddbd v1.5.2PL0 Copyright (c) Steve Scherf et al.
# Submitted via: audiograbber 1.83.01
#
DISCID=980acf0c
DTITLE=Karaoke - 60439
DYEAR=2010
DGENRE=KAraoke
TTITLE0=Garry Allan - Get Off On The Pain
TTITLE1=Reba McEntire - I Keep On Loving You
TTITLE2=Jerrod Miemann - Lover Lover
TTITLE3=Blake Shelton - All About Tonight
TTITLE4=Josh Turner - All Over Me
TTITLE5=Jason And The  Long Road To Love - Pray For You
TTITLE6=James Wesley - Jackson Hole
TTITLE7=Katie Amiger - Kiss Me Now
TTITLE8=Colt Ford - Chicken And Biscuits
TTITLE9=Randy Montana - Aint Much Left Of Loving You
TTITLE10=Carrie Underwood - Undo It
TTITLE11=Taylor Swift - Untouchable
EXTD=
EXTT0=
EXTT1=
EXTT2=
EXTT3=
EXTT4=
EXTT5=
EXTT6=
EXTT7=
EXTT8=
EXTT9=
EXTT10=
EXTT11=
PLAYORDER=
